<?xml version="1.0" encoding="UTF-8" standalone="no"?>
<svg
   version="1.2"
   viewBox="0 0 143.96918 131.82434"
   width="143.96918"
   height="131.82434"
   id="svg152"
   sodipodi:docname="chevron-nws-left.svg"
   inkscape:version="1.2.1 (9c6d41e410, 2022-07-14)"
   inkscape:export-filename="chevron-nws.png"
   inkscape:export-xdpi="96"
   inkscape:export-ydpi="96"
   xmlns:inkscape="http://www.inkscape.org/namespaces/inkscape"
   xmlns:sodipodi="http://sodipodi.sourceforge.net/DTD/sodipodi-0.dtd"
   xmlns="http://www.w3.org/2000/svg"
   xmlns:svg="http://www.w3.org/2000/svg">
  <defs
     id="defs156" />
  <sodipodi:namedview
     id="namedview154"
     pagecolor="#ffffff"
     bordercolor="#666666"
     borderopacity="1.0"
     inkscape:showpageshadow="2"
     inkscape:pageopacity="0.0"
     inkscape:pagecheckerboard="0"
     inkscape:deskcolor="#d1d1d1"
     showgrid="false"
     inkscape:zoom="3.1540364"
     inkscape:cx="181.19639"
     inkscape:cy="95.433269"
     inkscape:window-width="1920"
     inkscape:window-height="1009"
     inkscape:window-x="1912"
     inkscape:window-y="-8"
     inkscape:window-maximized="1"
     inkscape:current-layer="svg152" />
  <title
     id="title2">hero-carousel-3-svg</title>
  <style
     id="style4">
		.s0 { fill: #e6e6e6 } 
		.s1 { fill: #3f3d56 } 
		.s2 { fill: #cccccc } 
		.s3 { fill: #0ea2bd } 
		.s4 { fill: #f2f2f2 } 
		.s5 { fill: #ff6584 } 
		.s6 { fill: #a0616a } 
		.s7 { fill: #2f2e41 } 
		.s8 { opacity: .2;fill: #000000 } 
	</style>
  <ellipse
     style="fill:#a83f3f;fill-opacity:1;stroke-width:3.84667"
     id="path1824"
     cx="73.322266"
     cy="65.91217"
     rx="64.12645"
     ry="63.677414" />
  <path
     style="fill:#ffffff;fill-opacity:1;stroke-width:0.17014"
     d="m 74.133513,96.410735 -7.316063,-0.0506 -4.17348,-3.974943 C 60.348556,90.198928 53.175169,83.360599 46.70311,77.188857 L 34.93573,65.967508 39.063254,62.028612 c 2.270139,-2.166391 5.737376,-5.474422 7.704971,-7.351176 4.539704,-4.330115 20.386789,-19.206117 20.567739,-19.307381 0.07488,-0.04191 3.676848,-0.06473 8.004388,-0.05074 l 7.868256,0.02544 -9.065695,8.546121 -9.065694,8.546121 -3.316304,3.718541 c -1.823968,2.045199 -3.316304,3.755665 -3.316304,3.801037 0,0.04537 11.984443,0.0825 26.632097,0.0825 H 111.7088 v 5.415855 5.415856 H 85.068427 c -17.275897,0 -26.628735,0.03409 -26.607253,0.09697 0.09371,0.274333 8.915992,9.537147 13.252918,13.914695 2.734486,2.7601 6.151666,6.292827 7.593731,7.850506 1.442064,1.55768 2.825241,3.044558 3.073724,3.304168 l 0.451787,0.47202 -0.691879,-0.0239 c -0.380535,-0.0131 -3.984107,-0.0466 -8.007942,-0.0745 z"
     id="path1770" />
</svg>
